# xmcd
#
# Track frame offsets:
#  150
#  14196
#  27539
#  43059
#  53641
#  67690
#  85165
#  96798
#  113325
#  126588
#  139208
#
# Disc length: 2008 seconds
#
# Revision: 0
# Processed by: cddbd v1.5.1PL2 Copyright (c) Steve Scherf et al.
# Submitted via: Collectorz.com_Music_Collector 6.10
#
DISCID=9407d60b
DTITLE=Barbara Mandrell - The Best Of (The Millennium Collection)
DYEAR=1900
DGENRE=Country
TTITLE0=Standing Room Only
TTITLE1=Married But Not To Each Other
TTITLE2=Woman To Woman
TTITLE3=Sleeping Single In A Double Bed
TTITLE4=(If Loving You Is Wrong) I Don't Want It To Be Right
TTITLE5=Years
TTITLE6=Crackers
TTITLE7=I Was Country When Country Wasn't Cool (duet with George Jones)
TTITLE8='Till You're Gone
TTITLE9=One Of A Kind Pair Of Fools
TTITLE10=Happy Birthday Dear Heartache
EXTD=
EXTT0=
EXTT1=
EXTT2=
EXTT3=
EXTT4=
EXTT5=
EXTT6=
EXTT7=
EXTT8=
EXTT9=
EXTT10=
PLAYORDER=
